<svg xmlns="http://www.w3.org/2000/svg" width="200" height="40" viewBox="0 0 200 40" fill="none">
<path d="M52 11.6031L58.0365 0.273202H60.5571L66.5936 11.6031H64.956L59.3209 0.883889H59.2727L53.6376 11.6031H52ZM55.3715 7.82644V6.55685H63.2221V7.82644H55.3715Z" fill="#B4B6BF"/>
<path d="M67.9434 11.6031V0.273202H70.7209L75.746 10.6227H75.7781L80.8192 0.273202H83.5806V11.6031H82.1036V0.996385H82.0715L76.8858 11.6031H74.6542L69.4526 0.996385H69.4205V11.6031H67.9434Z" fill="#B4B6BF"/>
<path d="M85.8562 11.6031V0.273202H93.2413C94.4828 0.273202 95.4247 0.492835 96.0669 0.932102C96.7091 1.37137 97.0302 2.0142 97.0302 2.86059C97.0302 3.34271 96.9231 3.77126 96.7091 4.14624C96.495 4.51051 96.1953 4.80514 95.81 5.03013C95.4354 5.24441 94.9912 5.37833 94.4775 5.4319V5.46404C95.2374 5.49618 95.8742 5.62475 96.388 5.84974C96.9124 6.06402 97.3084 6.38007 97.576 6.79791C97.8436 7.21575 97.9774 7.73537 97.9774 8.35677C97.9774 9.42815 97.5867 10.237 96.8054 10.7834C96.0348 11.3299 94.9324 11.6031 93.4982 11.6031H85.8562ZM87.3974 11.1049L86.6429 10.4138H93.4179C94.4133 10.4138 95.1571 10.2424 95.6495 9.89956C96.1418 9.55672 96.388 9.02103 96.388 8.29249C96.388 7.58538 96.1204 7.04969 95.5853 6.68542C95.0501 6.32115 94.2099 6.13901 93.0647 6.13901H86.8195V5.01406H93.0165C93.7764 5.01406 94.3758 4.83728 94.8146 4.48373C95.2535 4.11946 95.4729 3.63734 95.4729 3.03736C95.4729 2.51239 95.2749 2.12133 94.8789 1.8642C94.4828 1.59636 93.8621 1.46244 93.0165 1.46244H86.6429L87.3974 0.755324V11.1049Z" fill="#B4B6BF"/>
<path d="M98.6674 11.6031L104.704 0.273202H107.224L113.261 11.6031H111.623L105.988 0.883889H105.94L100.305 11.6031H98.6674ZM102.039 7.82644V6.55685H109.889V7.82644H102.039Z" fill="#B4B6BF"/>
<path d="M120.393 11.8763C119.269 11.8763 118.258 11.753 117.359 11.5066C116.47 11.2495 115.727 10.8692 115.127 10.3656C114.539 9.86206 114.126 9.24066 113.891 8.50141L115.448 8.03536C115.694 8.63533 116.048 9.13352 116.508 9.52993C116.979 9.91563 117.546 10.1995 118.21 10.3817C118.884 10.5638 119.649 10.6549 120.505 10.6549C121.383 10.6549 122.127 10.5692 122.737 10.3978C123.347 10.2263 123.813 9.97991 124.134 9.6585C124.455 9.33708 124.615 8.94603 124.615 8.48534C124.615 7.88536 124.375 7.43538 123.893 7.1354C123.422 6.8247 122.694 6.60506 121.71 6.4765L118.258 6.04259C117.059 5.89259 116.144 5.58189 115.512 5.11049C114.881 4.63908 114.565 3.99625 114.565 3.182C114.565 2.51775 114.779 1.94991 115.207 1.47851C115.636 1.0071 116.262 0.642829 117.086 0.385698C117.91 0.128566 118.916 0 120.104 0C121.078 0 121.961 0.0964243 122.753 0.289273C123.545 0.482122 124.225 0.771394 124.792 1.15709C125.359 1.53208 125.809 1.99813 126.141 2.55524L124.68 3.08558C124.209 2.41061 123.615 1.92849 122.898 1.63921C122.18 1.34994 121.239 1.2053 120.072 1.2053C118.766 1.2053 117.787 1.37137 117.134 1.7035C116.481 2.02491 116.155 2.47489 116.155 3.05344C116.155 3.5677 116.369 3.95875 116.797 4.2266C117.236 4.49444 117.899 4.68729 118.788 4.80514L122.416 5.28726C123.69 5.43726 124.642 5.76939 125.274 6.28365C125.905 6.7872 126.221 7.47824 126.221 8.35677C126.221 9.08531 125.991 9.71742 125.531 10.2531C125.07 10.7781 124.407 11.1799 123.54 11.4584C122.684 11.737 121.635 11.8763 120.393 11.8763Z" fill="#B4B6BF"/>
<path d="M133.838 11.8763C132.714 11.8763 131.702 11.753 130.803 11.5066C129.915 11.2495 129.171 10.8692 128.572 10.3656C127.983 9.86206 127.571 9.24066 127.335 8.50141L128.893 8.03536C129.139 8.63533 129.492 9.13352 129.952 9.52993C130.423 9.91563 130.991 10.1995 131.654 10.3817C132.328 10.5638 133.094 10.6549 133.95 10.6549C134.828 10.6549 135.571 10.5692 136.181 10.3978C136.792 10.2263 137.257 9.97991 137.578 9.6585C137.899 9.33708 138.06 8.94603 138.06 8.48534C138.06 7.88536 137.819 7.43538 137.337 7.1354C136.866 6.8247 136.139 6.60506 135.154 6.4765L131.702 6.04259C130.504 5.89259 129.588 5.58189 128.957 5.11049C128.325 4.63908 128.01 3.99625 128.01 3.182C128.01 2.51775 128.224 1.94991 128.652 1.47851C129.08 1.0071 129.706 0.642829 130.53 0.385698C131.354 0.128566 132.36 0 133.549 0C134.523 0 135.406 0.0964243 136.198 0.289273C136.99 0.482122 137.669 0.771394 138.236 1.15709C138.804 1.53208 139.253 1.99813 139.585 2.55524L138.124 3.08558C137.653 2.41061 137.059 1.92849 136.342 1.63921C135.625 1.34994 134.683 1.2053 133.516 1.2053C132.211 1.2053 131.231 1.37137 130.578 1.7035C129.926 2.02491 129.599 2.47489 129.599 3.05344C129.599 3.5677 129.813 3.95875 130.241 4.2266C130.68 4.49444 131.344 4.68729 132.232 4.80514L135.86 5.28726C137.134 5.43726 138.087 5.76939 138.718 6.28365C139.35 6.7872 139.665 7.47824 139.665 8.35677C139.665 9.08531 139.435 9.71742 138.975 10.2531C138.515 10.7781 137.851 11.1799 136.984 11.4584C136.128 11.737 135.079 11.8763 133.838 11.8763Z" fill="#B4B6BF"/>
<path d="M140.38 11.6031L146.417 0.273202H148.937L154.974 11.6031H153.336L147.701 0.883889H147.653L142.018 11.6031H140.38ZM143.752 7.82644V6.55685H151.603V7.82644H143.752Z" fill="#B4B6BF"/>
<path d="M156.324 11.6031V0.273202H162.89C164.346 0.273202 165.577 0.492835 166.583 0.932102C167.589 1.36065 168.349 1.99813 168.862 2.84452C169.387 3.69091 169.649 4.71943 169.649 5.93009C169.649 7.15147 169.387 8.18535 168.862 9.03174C168.349 9.86742 167.589 10.5049 166.583 10.9442C165.577 11.3834 164.346 11.6031 162.89 11.6031H156.324ZM157.865 10.9281L157.335 10.2692H162.762C164.528 10.2692 165.85 9.91027 166.727 9.19245C167.605 8.47462 168.044 7.39253 168.044 5.94616C168.044 4.4998 167.599 3.41771 166.711 2.69988C165.833 1.97134 164.517 1.60707 162.762 1.60707H157.335L157.865 0.964243V10.9281Z" fill="#B4B6BF"/>
<path d="M178.761 11.8763C177.21 11.8763 175.872 11.6352 174.748 11.1531C173.624 10.671 172.757 9.98527 172.147 9.09602C171.537 8.20678 171.232 7.15147 171.232 5.93009C171.232 4.70872 171.537 3.65877 172.147 2.78023C172.757 1.89099 173.624 1.2053 174.748 0.723182C175.872 0.241061 177.21 0 178.761 0C180.324 0 181.667 0.241061 182.791 0.723182C183.915 1.2053 184.782 1.89099 185.392 2.78023C186.002 3.65877 186.307 4.70872 186.307 5.93009C186.307 7.15147 186.002 8.20678 185.392 9.09602C184.782 9.98527 183.91 10.671 182.775 11.1531C181.651 11.6352 180.313 11.8763 178.761 11.8763ZM178.761 10.5745C180.003 10.5745 181.063 10.3924 181.94 10.0281C182.829 9.65314 183.508 9.11745 183.979 8.42105C184.45 7.72466 184.686 6.89434 184.686 5.93009C184.686 4.96585 184.445 4.14089 183.963 3.4552C183.492 2.75881 182.813 2.22847 181.924 1.8642C181.047 1.48922 179.992 1.30173 178.761 1.30173C177.541 1.30173 176.487 1.48922 175.599 1.8642C174.721 2.22847 174.041 2.75881 173.56 3.4552C173.078 4.14089 172.837 4.96585 172.837 5.93009C172.837 6.89434 173.073 7.72466 173.544 8.42105C174.025 9.11745 174.71 9.65314 175.599 10.0281C176.487 10.3924 177.541 10.5745 178.761 10.5745Z" fill="#B4B6BF"/>
<path d="M188.136 11.6031V0.273202H195.794C196.639 0.273202 197.356 0.391054 197.945 0.626758C198.544 0.862462 198.999 1.21602 199.31 1.68743C199.631 2.14812 199.791 2.71595 199.791 3.39092C199.791 4.04446 199.636 4.60694 199.326 5.07835C199.015 5.53904 198.566 5.88724 197.977 6.12294C197.388 6.35865 196.677 6.4765 195.842 6.4765H190.945V5.91402H188.89V5.27119H195.553C196.463 5.27119 197.132 5.1212 197.56 4.82121C197.999 4.52123 198.218 4.04446 198.218 3.39092C198.218 2.73738 197.999 2.26597 197.56 1.9767C197.132 1.67671 196.463 1.52672 195.553 1.52672H188.906L189.677 0.916031V11.6031H188.136ZM197.817 11.6031L188.906 5.7051H191.09L200 11.6031H197.817Z" fill="#B4B6BF"/>
<path d="M56.5434 25.6649L52.1445 14.3351H53.7339L57.8278 24.7489H57.8599L61.8575 14.3351H64.362L68.3275 24.7489H68.3596L72.4535 14.3351H74.059L69.66 25.6649H67.1073L63.1258 15.2029H63.0777L59.064 25.6649H56.5434Z" fill="#B4B6BF"/>
<path d="M82.4554 25.9381C80.9034 25.9381 79.5656 25.6971 78.4417 25.2149C77.3179 24.7328 76.451 24.0471 75.8409 23.1579C75.2308 22.2687 74.9258 21.2133 74.9258 19.992C74.9258 18.7706 75.2308 17.7206 75.8409 16.8421C76.451 15.9529 77.3179 15.2672 78.4417 14.7851C79.5656 14.3029 80.9034 14.0619 82.4554 14.0619C84.018 14.0619 85.3613 14.3029 86.4851 14.7851C87.6089 15.2672 88.4758 15.9529 89.0859 16.8421C89.696 17.7206 90.001 18.7706 90.001 19.992C90.001 21.2133 89.696 22.2687 89.0859 23.1579C88.4758 24.0471 87.6035 24.7328 86.469 25.2149C85.3452 25.6971 84.0073 25.9381 82.4554 25.9381ZM82.4554 24.6364C83.6969 24.6364 84.7565 24.4543 85.6342 24.09C86.5225 23.715 87.2022 23.1793 87.6731 22.4829C88.1441 21.7865 88.3795 20.9562 88.3795 19.992C88.3795 19.0277 88.1387 18.2028 87.6571 17.5171C87.1861 16.8207 86.5065 16.2903 85.6181 15.9261C84.7405 15.5511 83.6862 15.3636 82.4554 15.3636C81.2352 15.3636 80.181 15.5511 79.2926 15.9261C78.415 16.2903 77.7353 16.8207 77.2537 17.5171C76.7721 18.2028 76.5312 19.0277 76.5312 19.992C76.5312 20.9562 76.7667 21.7865 77.2376 22.4829C77.7193 23.1793 78.4043 23.715 79.2926 24.09C80.181 24.4543 81.2352 24.6364 82.4554 24.6364Z" fill="#B4B6BF"/>
<path d="M91.8296 25.6649V14.3351H99.4876C100.333 14.3351 101.05 14.4529 101.639 14.6886C102.238 14.9243 102.693 15.2779 103.004 15.7493C103.325 16.21 103.485 16.7778 103.485 17.4528C103.485 18.1063 103.33 18.6688 103.02 19.1402C102.709 19.6009 102.26 19.9491 101.671 20.1848C101.082 20.4205 100.371 20.5384 99.5358 20.5384H94.6392V19.9759H92.5842V19.3331H99.2468C100.157 19.3331 100.826 19.1831 101.254 18.8831C101.692 18.5831 101.912 18.1063 101.912 17.4528C101.912 16.7992 101.692 16.3278 101.254 16.0386C100.826 15.7386 100.157 15.5886 99.2468 15.5886H92.6002L93.3709 14.9779V25.6649H91.8296ZM101.511 25.6649L92.6002 19.767H94.7837L103.694 25.6649H101.511Z" fill="#B4B6BF"/>
<path d="M105.368 25.6649V14.3351H106.909V25.1185L106.075 24.315H115.161V25.6649H105.368Z" fill="#B4B6BF"/>
<path d="M116.633 25.6649V14.3351H123.2C124.655 14.3351 125.886 14.5547 126.892 14.994C127.898 15.4225 128.658 16.06 129.172 16.9064C129.696 17.7528 129.959 18.7813 129.959 19.992C129.959 21.2133 129.696 22.2472 129.172 23.0936C128.658 23.9293 127.898 24.5668 126.892 25.006C125.886 25.4453 124.655 25.6649 123.2 25.6649H116.633ZM118.175 24.99L117.645 24.3311H123.071C124.837 24.3311 126.159 23.9721 127.037 23.2543C127.914 22.5365 128.353 21.4544 128.353 20.008C128.353 18.5617 127.909 17.4796 127.021 16.7618C126.143 16.0332 124.826 15.6689 123.071 15.6689H117.645L118.175 15.0261V24.99Z" fill="#B4B6BF"/>
<path d="M59.6741 40C58.2185 40 56.9502 39.7589 55.8691 39.2768C54.7881 38.7947 53.9533 38.1144 53.3646 37.2358C52.7867 36.3466 52.4977 35.2913 52.4977 34.0699C52.4977 33.1592 52.6636 32.3396 52.9954 31.6111C53.3272 30.8825 53.8088 30.2612 54.4403 29.7469C55.0718 29.2219 55.8263 28.8201 56.704 28.5416C57.5923 28.263 58.5877 28.1237 59.6901 28.1237C60.7283 28.1237 61.6756 28.2523 62.5318 28.5094C63.3987 28.7559 64.148 29.1201 64.7794 29.6022C65.4109 30.0737 65.9086 30.6576 66.2725 31.354L64.8597 31.9325C64.4102 31.1075 63.7412 30.4861 62.8529 30.0683C61.9752 29.6397 60.9156 29.4255 59.6741 29.4255C58.5182 29.4255 57.5228 29.613 56.6879 29.9879C55.8531 30.3629 55.2109 30.8986 54.7614 31.595C54.3226 32.2807 54.1031 33.1057 54.1031 34.0699C54.1031 35.0127 54.3279 35.8323 54.7774 36.5287C55.2377 37.2251 55.8799 37.7608 56.704 38.1358C57.5388 38.5108 58.5289 38.6983 59.6741 38.6983C60.937 38.6983 62.002 38.484 62.8689 38.0554C63.7466 37.6269 64.4102 37.0001 64.8597 36.1752L66.2725 36.7376C65.9193 37.434 65.427 38.0287 64.7955 38.5215C64.164 39.0036 63.4148 39.3732 62.5478 39.6304C61.6916 39.8768 60.7337 40 59.6741 40Z" fill="#B4B6BF"/>
<path d="M75.0396 40C73.4876 40 72.1497 39.7589 71.0259 39.2768C69.9021 38.7947 69.0351 38.109 68.4251 37.2198C67.815 36.3305 67.51 35.2752 67.51 34.0538C67.51 32.8325 67.815 31.7825 68.4251 30.904C69.0351 30.0147 69.9021 29.3291 71.0259 28.8469C72.1497 28.3648 73.4876 28.1237 75.0396 28.1237C76.6022 28.1237 77.9454 28.3648 79.0693 28.8469C80.1931 29.3291 81.06 30.0147 81.6701 30.904C82.2802 31.7825 82.5852 32.8325 82.5852 34.0538C82.5852 35.2752 82.2802 36.3305 81.6701 37.2198C81.06 38.109 80.1877 38.7947 79.0532 39.2768C77.9294 39.7589 76.5915 40 75.0396 40ZM75.0396 38.6983C76.2811 38.6983 77.3407 38.5161 78.2184 38.1519C79.1067 37.7769 79.7864 37.2412 80.2573 36.5448C80.7282 35.8484 80.9637 35.0181 80.9637 34.0538C80.9637 33.0896 80.7229 32.2646 80.2412 31.5789C79.7703 30.8826 79.0907 30.3522 78.2023 29.9879C77.3247 29.613 76.2704 29.4255 75.0396 29.4255C73.8194 29.4255 72.7652 29.613 71.8768 29.9879C70.9992 30.3522 70.3195 30.8826 69.8379 31.5789C69.3562 32.2646 69.1154 33.0896 69.1154 34.0538C69.1154 35.0181 69.3509 35.8484 69.8218 36.5448C70.3035 37.2412 70.9885 37.7769 71.8768 38.1519C72.7652 38.5161 73.8194 38.6983 75.0396 38.6983Z" fill="#B4B6BF"/>
<path d="M84.4138 39.7268V28.3969H87.111L95.4914 38.8751H95.5396V28.3969H97.0327V39.7268H94.3355L85.955 29.2487H85.9069V39.7268H84.4138Z" fill="#B4B6BF"/>
<path d="M105.208 40C104.085 40 103.073 39.8768 102.174 39.6304C101.286 39.3732 100.542 38.9929 99.9424 38.4894C99.3538 37.9858 98.9417 37.3644 98.7062 36.6252L100.264 36.1591C100.51 36.7591 100.863 37.2573 101.323 37.6537C101.794 38.0394 102.361 38.3233 103.025 38.5054C103.699 38.6876 104.464 38.7786 105.321 38.7786C106.198 38.7786 106.942 38.6929 107.552 38.5215C108.162 38.3501 108.628 38.1037 108.949 37.7822C109.27 37.4608 109.431 37.0698 109.431 36.6091C109.431 36.0091 109.19 35.5591 108.708 35.2591C108.237 34.9484 107.509 34.7288 106.525 34.6002L103.073 34.1663C101.874 34.0163 100.959 33.7056 100.328 33.2342C99.6963 32.7628 99.3805 32.12 99.3805 31.3057C99.3805 30.6415 99.5946 30.0737 100.023 29.6022C100.451 29.1308 101.077 28.7666 101.901 28.5094C102.725 28.2523 103.731 28.1237 104.919 28.1237C105.893 28.1237 106.776 28.2202 107.568 28.413C108.36 28.6059 109.04 28.8951 109.607 29.2808C110.175 29.6558 110.624 30.1219 110.956 30.679L109.495 31.2093C109.024 30.5344 108.43 30.0522 107.713 29.763C106.996 29.4737 106.054 29.329 104.887 29.329C103.581 29.329 102.602 29.4951 101.949 29.8272C101.296 30.1487 100.97 30.5986 100.97 31.1772C100.97 31.6914 101.184 32.0825 101.612 32.3503C102.051 32.6182 102.715 32.811 103.603 32.9289L107.231 33.411C108.505 33.561 109.457 33.8931 110.089 34.4074C110.72 34.9109 111.036 35.602 111.036 36.4805C111.036 37.2091 110.806 37.8412 110.346 38.3769C109.886 38.9018 109.222 39.3036 108.355 39.5822C107.499 39.8607 106.45 40 105.208 40Z" fill="#B4B6BF"/>
<path d="M118.991 40C117.631 40 116.481 39.8018 115.539 39.4054C114.608 38.9983 113.901 38.4036 113.42 37.6215C112.938 36.8394 112.697 35.8859 112.697 34.7609V28.3969H114.239V34.6002C114.239 35.5002 114.415 36.2555 114.768 36.8662C115.122 37.4662 115.651 37.9162 116.358 38.2162C117.064 38.5161 117.942 38.6661 118.991 38.6661C120.04 38.6661 120.896 38.5215 121.559 38.2322C122.234 37.9322 122.731 37.4823 123.052 36.8823C123.384 36.2823 123.55 35.5216 123.55 34.6002V28.3969H125.091V34.7609C125.091 35.918 124.861 36.8876 124.401 37.6698C123.952 38.4411 123.277 39.025 122.378 39.4215C121.479 39.8072 120.35 40 118.991 40Z" fill="#B4B6BF"/>
<path d="M127.318 39.7268V28.3969H128.86V39.1804L128.025 38.3769H137.112V39.7268H127.318Z" fill="#B4B6BF"/>
<path d="M140.607 39.7268V29.0076H142.148V39.7268H140.607ZM135.084 29.7469V28.3969H147.671V29.7469H135.084Z" fill="#B4B6BF"/>
<path d="M149.143 39.7268V28.3969H150.684V39.7268H149.143Z" fill="#B4B6BF"/>
<path d="M152.961 39.7268V28.3969H155.658L164.039 38.8751H164.087V28.3969H165.58V39.7268H162.883L154.502 29.2487H154.454V39.7268H152.961Z" fill="#B4B6BF"/>
<path d="M174.751 40C173.242 40 171.942 39.7589 170.85 39.2768C169.758 38.7947 168.913 38.1144 168.313 37.2358C167.725 36.3573 167.43 35.3074 167.43 34.086C167.43 32.8646 167.725 31.8093 168.313 30.92C168.913 30.0308 169.763 29.3451 170.866 28.863C171.968 28.3702 173.258 28.1237 174.735 28.1237C175.773 28.1237 176.72 28.247 177.577 28.4934C178.444 28.7291 179.198 29.0826 179.84 29.554C180.483 30.0254 180.991 30.5986 181.366 31.2736L179.985 31.9004C179.514 31.0754 178.834 30.454 177.946 30.0362C177.068 29.6076 175.998 29.3933 174.735 29.3933C173.547 29.3933 172.525 29.5808 171.669 29.9558C170.823 30.3308 170.17 30.8665 169.71 31.5629C169.26 32.2593 169.036 33.1003 169.036 34.086C169.036 35.0502 169.266 35.8805 169.726 36.5769C170.186 37.2733 170.844 37.809 171.701 38.184C172.557 38.559 173.574 38.7465 174.751 38.7465C175.907 38.7465 176.897 38.5858 177.721 38.2644C178.545 37.9322 179.182 37.4608 179.632 36.8501C180.081 36.2395 180.317 35.5056 180.338 34.6485L180.852 35.0663H173.659V33.861H181.751V34.4877C181.751 35.6234 181.462 36.6037 180.884 37.4287C180.317 38.2537 179.509 38.8911 178.46 39.3411C177.421 39.7804 176.185 40 174.751 40Z" fill="#B4B6BF"/>
<path d="M21 17.585L33.4346 5.15039L34.8496 6.56543L22.415 19H40V21H22.415L34.8496 33.4346L33.4346 34.8496L21 22.415V40H19V22.415L6.56543 34.8496L5.15039 33.4346L17.585 21H0V19H17.585L5.15039 6.56543L6.56543 5.15039L19 17.585V0H21V17.585Z" fill="#B4B6BF"/>
</svg>